<svg id="cloud_download-16px" xmlns="http://www.w3.org/2000/svg" width="16" height="16" viewBox="0 0 16 16">
  <defs>
    <style>
      .cls-1 {
        fill: none;
      }

      .cls-2 {
        fill: red;
      }
    </style>
  </defs>
  <path id="Path_5302" data-name="Path 5302" class="cls-1" d="M0,0H16V16H0Z"/>
  <path id="Path_5303" data-name="Path 5303" class="cls-2" d="M12.9,8.027A4.995,4.995,0,0,0,3.567,6.693,4,4,0,0,0,4,14.667h8.667a3.324,3.324,0,0,0,.233-6.64Zm-.233,5.307H4A2.665,2.665,0,0,1,3.707,8.02l.713-.073.333-.633a3.658,3.658,0,0,1,6.84.973l.2,1,1.02.073a1.989,1.989,0,0,1-.147,3.973ZM8.967,8H7.033v2h-1.7L8,12.667,10.667,10h-1.7Z" transform="translate(0 -1.333)"/>
</svg>
