<svg xmlns="http://www.w3.org/2000/svg" width="40" height="53" viewBox="0 0 40 53">
    <path fill="#063d5d" d="M18.948 26.51c-.521-1.656-.51-4.855-.208-4.855.875 0 .791 3.82.208 4.855zm-.177 4.89a47.62 47.62 0 0 1-2.958 6.49 38.518 38.518 0 0 1 6.552-2.267 13.432 13.432 0 0 1-3.594-4.223zm-9.8 12.919c0 .083 1.375-.559 3.635-4.161-.7.648-3.033 2.532-3.637 4.157zm16.862-27.756H40v33.953A2.486 2.486 0 0 1 37.5 53h-35A2.486 2.486 0 0 1 0 50.516V2.484A2.486 2.486 0 0 1 2.5 0h20.833v14.078a2.5 2.5 0 0 0 2.5 2.485zM25 34.346a10.4 10.4 0 0 1-4.448-5.569c.469-1.915 1.208-4.824.646-6.646-.49-3.043-4.417-2.743-4.979-.7-.521 1.894-.042 4.565.844 7.971a96.936 96.936 0 0 1-4.25 8.882c-.01 0-.01.01-.021.01-2.823 1.435-7.667 4.606-5.677 7.035a3.246 3.246 0 0 0 2.24 1.035c1.865 0 3.719-1.863 6.365-6.4a59.66 59.66 0 0 1 8.229-2.4 15.859 15.859 0 0 0 6.667 2.019 2.678 2.678 0 0 0 2.052-4.493c-1.449-1.406-5.658-1.002-7.668-.744zm14.271-23.477L29.063.725A2.506 2.506 0 0 0 27.292 0h-.625v13.25H40v-.631a2.469 2.469 0 0 0-.729-1.75zM31.552 37.3c.427-.279-.26-1.232-4.458-.932 3.864 1.632 4.458.932 4.458.932z"/>
</svg>
