<svg xmlns="http://www.w3.org/2000/svg" width="135" height="40" viewBox="0 0 135 40">
    <defs>
        <linearGradient id="linear-gradient" x1=".915" x2="-.383" y1="1.03" y2=".361" gradientUnits="objectBoundingBox">
            <stop offset="0" stop-color="#00a0ff"/>
            <stop offset=".007" stop-color="#00a1ff"/>
            <stop offset=".26" stop-color="#00beff"/>
            <stop offset=".512" stop-color="#00d2ff"/>
            <stop offset=".76" stop-color="#00dfff"/>
            <stop offset="1" stop-color="#00e3ff"/>
        </linearGradient>
        <linearGradient id="linear-gradient-2" x1="1.076" x2="-1.305" y1=".733" y2=".733" gradientUnits="objectBoundingBox">
            <stop offset="0" stop-color="#ffe000"/>
            <stop offset=".409" stop-color="#ffbd00"/>
            <stop offset=".775" stop-color="orange"/>
            <stop offset="1" stop-color="#ff9c00"/>
        </linearGradient>
        <linearGradient id="linear-gradient-3" x1=".862" x2="-.501" y1="-.023" y2="-1.793" gradientUnits="objectBoundingBox">
            <stop offset="0" stop-color="#ff3a44"/>
            <stop offset="1" stop-color="#c31162"/>
        </linearGradient>
        <linearGradient id="linear-gradient-4" x1="-.188" x2=".421" y1="2.697" y2="1.907" gradientUnits="objectBoundingBox">
            <stop offset="0" stop-color="#32a071"/>
            <stop offset=".068" stop-color="#2da771"/>
            <stop offset=".476" stop-color="#15cf74"/>
            <stop offset=".801" stop-color="#06e775"/>
            <stop offset="1" stop-color="#00f076"/>
        </linearGradient>
        <style>
            .cls-10{fill:#fff}.cls-8{isolation:isolate;opacity:.12}.cls-10{stroke:#fff;stroke-miterlimit:10;stroke-width:.2px}
        </style>
    </defs>
    <g id="Google-Play" transform="translate(-10 -10)">
        <g id="Group_659">
            <rect id="Rectangle_3003" width="135" height="40" rx="5" transform="translate(10 10)"/>
            <g id="Group_656">
                <g id="Group_655">
                    <path id="Path_5325" fill="#a6a6a6" d="M140 10.8a4.2 4.2 0 0 1 4.2 4.2v30a4.2 4.2 0 0 1-4.2 4.2H15a4.2 4.2 0 0 1-4.2-4.2V15a4.2 4.2 0 0 1 4.2-4.2h125m0-.8H15a5.015 5.015 0 0 0-5 5v30a5.015 5.015 0 0 0 5 5h125a5.015 5.015 0 0 0 5-5V15a5.015 5.015 0 0 0-5-5z"/>
                </g>
            </g>
            <path id="Path_5326" fill="#fff" d="M74.725 22.79a3.718 3.718 0 1 0 3.731 3.718 3.664 3.664 0 0 0-3.731-3.718zm0 5.971a2.259 2.259 0 1 1 2.1-2.253 2.151 2.151 0 0 1-2.1 2.253zm-8.141-5.971a3.718 3.718 0 1 0 3.731 3.718 3.665 3.665 0 0 0-3.731-3.718zm0 5.971a2.259 2.259 0 1 1 2.1-2.253 2.15 2.15 0 0 1-2.1 2.253zm-9.684-4.83v1.577h3.774a3.294 3.294 0 0 1-.859 1.986 3.863 3.863 0 0 1-2.915 1.154 4.2 4.2 0 0 1 0-8.393 4.023 4.023 0 0 1 2.845 1.127l1.112-1.112a5.5 5.5 0 0 0-3.957-1.592 5.774 5.774 0 1 0 0 11.547 5.278 5.278 0 0 0 4.027-1.619 5.7 5.7 0 0 0 1.282-4.675zm39.6 1.225a3.456 3.456 0 0 0-3.183-2.366 3.533 3.533 0 0 0-3.506 3.718 3.637 3.637 0 0 0 3.689 3.717 3.7 3.7 0 0 0 3.1-1.647l-1.267-.845a2.123 2.123 0 0 1-1.833 1.028 1.892 1.892 0 0 1-1.8-1.127l4.972-2.056zM91.434 26.4a2.039 2.039 0 0 1 1.943-2.168 1.438 1.438 0 0 1 1.38.788zM87.392 30h1.634V19.073h-1.634zm-2.675-6.379h-.057a2.574 2.574 0 0 0-1.96-.831 3.721 3.721 0 0 0 0 7.435 2.532 2.532 0 0 0 1.957-.845h.057v.536c0 1.422-.761 2.182-1.986 2.182a2.058 2.058 0 0 1-1.873-1.323l-1.422.591a3.542 3.542 0 0 0 3.3 2.2c1.916 0 3.535-1.127 3.535-3.873v-6.678h-1.551zm-1.873 5.14a2.261 2.261 0 0 1 0-4.506 2.094 2.094 0 0 1 1.985 2.267 2.078 2.078 0 0 1-1.985 2.239zm21.311-9.688h-3.908V30h1.631v-4.14h2.277a3.4 3.4 0 1 0 0-6.787zm.042 5.266h-2.319v-3.745h2.322a1.873 1.873 0 1 1 0 3.745zm10.08-1.569a3.062 3.062 0 0 0-2.91 1.673l1.448.6a1.545 1.545 0 0 1 1.49-.8 1.57 1.57 0 0 1 1.715 1.406v.112a3.617 3.617 0 0 0-1.7-.421c-1.56 0-3.149.857-3.149 2.46a2.524 2.524 0 0 0 2.713 2.4 2.3 2.3 0 0 0 2.081-1.069h.056v.844h1.579v-4.182c0-1.94-1.453-3.023-3.323-3.023zm-.2 5.989c-.534 0-1.279-.267-1.279-.928 0-.844.928-1.167 1.729-1.167a2.9 2.9 0 0 1 1.49.366 1.977 1.977 0 0 1-1.937 1.729zm9.25-5.75l-1.869 4.738h-.058l-1.941-4.738h-1.757l2.91 6.621-1.659 3.684h1.7l4.485-10.3zM108.64 30h1.63V19.073h-1.63z"/>
            <g id="Group_658">
                <path id="Path_5327" fill="url(#linear-gradient)" d="M20.435 17.538a2.007 2.007 0 0 0-.462 1.405v22.116a2.005 2.005 0 0 0 .462 1.405l.074.072L32.9 30.147v-.292l-12.391-12.39z"/>
                <path id="Path_5328" fill="url(#linear-gradient-2)" d="M37.028 34.279L32.9 30.147v-.292l4.131-4.131.093.054 4.893 2.78c1.4.794 1.4 2.093 0 2.887l-4.893 2.78z"/>
                <path id="Path_5329" fill="url(#linear-gradient-3)" d="M37.122 34.225L32.9 30 20.435 42.464a1.627 1.627 0 0 0 2.079.061l14.608-8.3"/>
                <path id="Path_5330" fill="url(#linear-gradient-4)" d="M37.122 25.777l-14.608-8.3a1.627 1.627 0 0 0-2.079.061L32.9 30z"/>
                <g id="Group_657">
                    <path id="Path_5331" d="M37.029 34.132l-14.515 8.247a1.665 1.665 0 0 1-2 .011l-.075.074.074.073a1.665 1.665 0 0 0 2-.011l14.608-8.3z" style="isolation:isolate" opacity="0.2"/>
                    <path id="Path_5332" d="M20.435 42.318a2.007 2.007 0 0 1-.462-1.405v.146a2.005 2.005 0 0 0 .462 1.405l.075-.074z" class="cls-8"/>
                </g>
                <path id="Path_5333" d="M42.015 31.3l-4.986 2.833.093.093 4.893-2.78A1.755 1.755 0 0 0 43.063 30a1.861 1.861 0 0 1-1.048 1.3z" class="cls-8"/>
                <path id="Path_5334" d="M22.514 17.623l19.5 11.08A1.861 1.861 0 0 1 43.063 30a1.753 1.753 0 0 0-1.048-1.444l-19.5-11.08c-1.4-.794-2.541-.134-2.541 1.466v.147c-.001-1.6 1.142-2.26 2.54-1.466z" style="isolation:isolate" fill="#fff" opacity="0.25"/>
            </g>
        </g>
        <g id="Layer_3">
            <g id="Group_660">
                <path id="Path_5335" d="M51.816 38.853H51.1v-1.921h.714z" class="cls-10"/>
                <path id="Path_5336" d="M53.088 43.018v-6.086h1.861a3.027 3.027 0 0 1 2.244.845 3.291 3.291 0 0 1 0 4.4 3.024 3.024 0 0 1-2.244.846zm.781-.748h1.08a2.282 2.282 0 0 0 1.67-.6 2.3 2.3 0 0 0-1.67-3.986h-1.08z" class="cls-10"/>
                <path id="Path_5337" d="M62.675 37.68H59.9v1.929h2.5v.732h-2.5v1.929h2.772v.748h-3.55v-6.086h3.553z" class="cls-10"/>
                <path id="Path_5338" d="M63.79 43.018v-6.086h.952l2.958 4.734h.033l-.033-1.172v-3.562h.781v6.086h-.815l-3.1-4.964h-.033l.033 1.173v3.791z" class="cls-10"/>
                <path id="Path_5339" d="M71.065 43.018l2.3-6.086h.884l2.295 6.086h-.867l-.587-1.649h-2.562l-.6 1.649zm1.726-2.379h2.024l-1-2.746h-.034z" class="cls-10"/>
                <path id="Path_5340" d="M77.334 43.018v-6.086h.781v5.338h2.636v.748z" class="cls-10"/>
                <path id="Path_5341" d="M81.6 43.018v-6.086h.781v6.086z" class="cls-10"/>
                <path id="Path_5342" d="M83.781 43.018v-6.086h.952l2.958 4.734h.034l-.034-1.172v-3.562h.782v6.086h-.816l-3.094-4.964h-.034l.034 1.173v3.791z" class="cls-10"/>
            </g>
        </g>
    </g>
</svg>
