<svg id="list-24px" xmlns="http://www.w3.org/2000/svg" width="24" height="24" viewBox="0 0 24 24">
  <defs>
    <style>
      .cls-1, .cls-2 {
        fill: none;
      }

      .cls-2 {
        opacity: 0.87;
      }

      .cls-3 {
        fill:#063d5d;
      }

    </style>
  </defs>
  <g id="Group_650" data-name="Group 650">
    <path id="Path_5293" data-name="Path 5293" class="cls-1" d="M0,0H24V24H0Z"/>
    <path id="Path_5294" data-name="Path 5294" class="cls-2" d="M0,0H24V24H0Z"/>
  </g>
  <path id="Path_5295" data-name="Path 5295" class="cls-3" d="M3,13H5V11H3Zm0,4H5V15H3ZM3,9H5V7H3Zm4,4H21V11H7Zm0,4H21V15H7ZM7,7V9H21V7ZM3,13H5V11H3Zm0,4H5V15H3ZM3,9H5V7H3Zm4,4H21V11H7Zm0,4H21V15H7ZM7,7V9H21V7Z"/>
</svg>
