<svg xmlns="http://www.w3.org/2000/svg" width="24" height="24" viewBox="0 0 24 24">
  <g id="Twitter" transform="translate(0 -0.105)">
    <g id="boundry" transform="translate(0 0.105)" fill="#063d5d" stroke="#707070" stroke-width="2" opacity="0">
      <rect width="24" height="24" stroke="none"/>
      <rect x="1" y="1" width="22" height="22" fill="none"/>
    </g>
    <path id="twitter-brands" d="M17.944,52.13c.013.178.013.355.013.533A11.583,11.583,0,0,1,6.294,64.326,11.583,11.583,0,0,1,0,62.486a8.481,8.481,0,0,0,.99.051,8.209,8.209,0,0,0,5.089-1.751,4.106,4.106,0,0,1-3.833-2.843,5.171,5.171,0,0,0,.774.063,4.335,4.335,0,0,0,1.079-.14A4.1,4.1,0,0,1,.812,53.843v-.051a4.128,4.128,0,0,0,1.853.52A4.105,4.105,0,0,1,1.4,48.831,11.651,11.651,0,0,0,9.848,53.12a4.627,4.627,0,0,1-.1-.939,4.1,4.1,0,0,1,7.094-2.8,8.07,8.07,0,0,0,2.6-.99,4.088,4.088,0,0,1-1.8,2.259A8.217,8.217,0,0,0,20,50.011,8.811,8.811,0,0,1,17.944,52.13Z" transform="translate(2 -44.082)" fill="#063d5d"/>
  </g>
</svg>
