<svg xmlns="http://www.w3.org/2000/svg" width="20" height="20" viewBox="0 0 20 20">
  <g id="Youtube" transform="translate(18247 6722)">
    <rect id="boundry" width="20" height="20" transform="translate(-18247 -6722)" fill="#f8f8f8" opacity="0"/>
    <path id="youtube-brands" d="M31.251,65.834a2.094,2.094,0,0,0-1.474-1.483A49.491,49.491,0,0,0,23.266,64a49.491,49.491,0,0,0-6.512.351,2.094,2.094,0,0,0-1.474,1.483,23.579,23.579,0,0,0,0,8.075,2.063,2.063,0,0,0,1.474,1.459,49.49,49.49,0,0,0,6.512.351,49.49,49.49,0,0,0,6.512-.351,2.063,2.063,0,0,0,1.474-1.459,23.579,23.579,0,0,0,0-8.075Zm-9.69,6.516V67.393l4.356,2.478Z" transform="translate(-18260.268 -6781.833)" fill="#f8f8f8"/>
  </g>
</svg>
