<svg xmlns="http://www.w3.org/2000/svg" width="20" height="20" viewBox="0 0 20 20">
  <g id="Twitter" transform="translate(18247 6820)">
    <rect id="boundry" width="20" height="20" transform="translate(-18247 -6820)" fill="#f8f8f8" opacity="0"/>
    <path id="twitter-brands" d="M14.954,51.456c.011.148.011.3.011.444a9.652,9.652,0,0,1-9.719,9.719A9.653,9.653,0,0,1,0,60.085a7.066,7.066,0,0,0,.825.042,6.841,6.841,0,0,0,4.241-1.459A3.422,3.422,0,0,1,1.872,56.3a4.308,4.308,0,0,0,.645.053,3.613,3.613,0,0,0,.9-.116A3.416,3.416,0,0,1,.677,52.883v-.042a3.44,3.44,0,0,0,1.544.434,3.421,3.421,0,0,1-1.058-4.569A9.709,9.709,0,0,0,8.206,52.28a3.856,3.856,0,0,1-.085-.783,3.419,3.419,0,0,1,5.912-2.337,6.725,6.725,0,0,0,2.168-.825,3.407,3.407,0,0,1-1.5,1.882,6.848,6.848,0,0,0,1.967-.529A7.343,7.343,0,0,1,14.954,51.456Z" transform="translate(-18245.334 -6864.749)" fill="#f8f8f8"/>
  </g>
</svg>
