<svg xmlns="http://www.w3.org/2000/svg" width="20" height="20" viewBox="0 0 20 20">
  <g id="Instagram" transform="translate(18247 6751)">
    <rect id="boundry" width="20" height="20" transform="translate(-18247 -6751)" fill="#f8f8f8" opacity="0"/>
    <path id="instagram-brands" d="M8.262,35.885a4.273,4.273,0,1,0,4.273,4.273A4.266,4.266,0,0,0,8.262,35.885Zm0,7.051a2.778,2.778,0,1,1,2.778-2.778,2.783,2.783,0,0,1-2.778,2.778Zm5.445-7.226a1,1,0,1,1-1-1A.994.994,0,0,1,13.707,35.71Zm2.83,1.012a4.932,4.932,0,0,0-1.346-3.492A4.965,4.965,0,0,0,11.7,31.884c-1.376-.078-5.5-.078-6.876,0A4.958,4.958,0,0,0,1.33,33.226,4.949,4.949,0,0,0-.016,36.718c-.078,1.376-.078,5.5,0,6.876A4.932,4.932,0,0,0,1.33,47.087a4.971,4.971,0,0,0,3.492,1.346c1.376.078,5.5.078,6.876,0a4.932,4.932,0,0,0,3.492-1.346,4.965,4.965,0,0,0,1.346-3.492C16.615,42.219,16.615,38.1,16.537,36.722Zm-1.778,8.349a2.813,2.813,0,0,1-1.584,1.584c-1.1.435-3.7.335-4.913.335s-3.819.1-4.913-.335a2.813,2.813,0,0,1-1.584-1.584c-.435-1.1-.335-3.7-.335-4.913s-.1-3.819.335-4.913a2.813,2.813,0,0,1,1.584-1.584c1.1-.435,3.7-.335,4.913-.335s3.819-.1,4.913.335a2.813,2.813,0,0,1,1.584,1.584c.435,1.1.335,3.7.335,4.913S15.194,43.978,14.759,45.071Z" transform="translate(-18245.26 -6781.159)" fill="#f8f8f8"/>
  </g>
</svg>
