<svg xmlns="http://www.w3.org/2000/svg" width="17.102" height="11.453" viewBox="0 0 17.102 11.453">
  <g id="Group_179" data-name="Group 179" transform="translate(-201.404 -1349.188)">
    <path id="Path_5082" data-name="Path 5082" d="M218.361,1357.149a.493.493,0,0,0-.7,0l-1.675,1.675v-7.167a2.472,2.472,0,0,0-2.469-2.469h-4.377a.494.494,0,0,0,0,.988h4.377a1.482,1.482,0,0,1,1.481,1.481v7.167l-1.674-1.675a.494.494,0,0,0-.7.7l2.517,2.518a.492.492,0,0,0,.7,0l2.518-2.518A.493.493,0,0,0,218.361,1357.149Z" fill="#657786"/>
    <path id="Path_5083" data-name="Path 5083" d="M210.767,1359.654H206.39a1.483,1.483,0,0,1-1.481-1.481v-7.168l1.675,1.675a.494.494,0,0,0,.7-.7l-2.518-2.518a.493.493,0,0,0-.7,0l-2.518,2.518a.494.494,0,0,0,.7.7l1.676-1.675v7.168a2.471,2.471,0,0,0,2.468,2.468h4.377a.493.493,0,1,0,0-.987Z" fill="#657786"/>
  </g>
</svg>
