<svg xmlns="http://www.w3.org/2000/svg" width="24" height="24" viewBox="0 0 24 24">
    <g fill="#063d5d">
        <path d="M17.944 52.13c.013.178.013.355.013.533A11.583 11.583 0 0 1 6.294 64.326 11.583 11.583 0 0 1 0 62.486a8.481 8.481 0 0 0 .99.051 8.209 8.209 0 0 0 5.089-1.751 4.106 4.106 0 0 1-3.833-2.843 5.171 5.171 0 0 0 .774.063 4.335 4.335 0 0 0 1.079-.14 4.1 4.1 0 0 1-3.287-4.023v-.051a4.128 4.128 0 0 0 1.853.52A4.105 4.105 0 0 1 1.4 48.831a11.651 11.651 0 0 0 8.448 4.289 4.627 4.627 0 0 1-.1-.939 4.1 4.1 0 0 1 7.094-2.8 8.07 8.07 0 0 0 2.6-.99 4.088 4.088 0 0 1-1.8 2.259A8.217 8.217 0 0 0 20 50.011a8.811 8.811 0 0 1-2.056 2.119z" transform="translate(0 -.105) translate(2 -44.082)"/>
    </g>
</svg>
