<svg xmlns="http://www.w3.org/2000/svg" width="12.085" height="12.085" viewBox="0 0 12.085 12.085">
  <path id="Path_5080" data-name="Path 5080" d="M190.694,868.355a2.183,2.183,0,0,1-.825.837.17.17,0,0,1,.024.073.078.078,0,0,0,0,.073.152.152,0,0,1,.012.072.079.079,0,0,0,0,.073,2.375,2.375,0,0,1-.655,1.626,2.141,2.141,0,0,1-1.553.679,2.019,2.019,0,0,1-.388-.048,1.921,1.921,0,0,1-.376-.1,2.374,2.374,0,0,1-.789.934,2.153,2.153,0,0,1-1.2.364,2.038,2.038,0,0,1-1.165-.364,2.139,2.139,0,0,1-.8-.934,2.145,2.145,0,0,1-.376.1,2.276,2.276,0,0,1-.4.048,2.162,2.162,0,0,1-1.553-.679,2.3,2.3,0,0,1-.631-1.626.079.079,0,0,1,0-.073v-.072a.079.079,0,0,1,0-.073.078.078,0,0,0,0-.073,2.4,2.4,0,0,1-.8-.837,2.232,2.232,0,0,1-.3-1.177,2.394,2.394,0,0,1,.339-1.238,2.149,2.149,0,0,1,.886-.825l-.048-.194a.971.971,0,0,1-.049-.206c-.012-.061-.012-.134-.024-.207a.593.593,0,0,1,0-.206,2.345,2.345,0,0,1,.631-1.626A2.12,2.12,0,0,1,182.2,862a2.249,2.249,0,0,1,.4.036,2.281,2.281,0,0,1,.376.109,2.214,2.214,0,0,1,.8-.934,2.035,2.035,0,0,1,1.165-.352,2.151,2.151,0,0,1,1.2.352,2.468,2.468,0,0,1,.789.934A2.063,2.063,0,0,1,187.7,862a2.1,2.1,0,0,1,1.553.679,2.421,2.421,0,0,1,.655,1.626,1.264,1.264,0,0,0-.012.206l-.036.207-.037.206a.638.638,0,0,1-.072.194,2.138,2.138,0,0,1,.91.825,2.4,2.4,0,0,1,.339,1.238A2.492,2.492,0,0,1,190.694,868.355Zm-2.9-2.645a.812.812,0,0,0,.182-.449.6.6,0,0,0-.194-.425.546.546,0,0,0-.425-.182.537.537,0,0,0-.436.182L184,867.748l-1.007-1.019a.671.671,0,0,0-.436-.182.729.729,0,0,0-.449.182.683.683,0,0,0-.17.437.55.55,0,0,0,.182.436l1.444,1.456a.588.588,0,0,0,.206.134.55.55,0,0,0,.243.048.568.568,0,0,0,.23-.048.539.539,0,0,0,.194-.134h.012l3.337-3.348Z" transform="translate(-178.912 -860.856)" fill="#1da1f2"/>
</svg>
