<svg xmlns="http://www.w3.org/2000/svg" width="13" height="13" viewBox="0 0 13 13">
  <g id="Group_178" data-name="Group 178" transform="translate(-97.907 -1348.222)">
    <path id="Path_5081" data-name="Path 5081" d="M105.773,1348.228h0l-2.73-.006h0a5.079,5.079,0,0,0-5.134,5.135,4.874,4.874,0,0,0,4.914,4.851v2.52a.561.561,0,0,0,.078.266.492.492,0,0,0,.681.15c.173-.11,4.26-2.724,5.324-3.624a5.562,5.562,0,0,0,2-4.154v-.011A5.081,5.081,0,0,0,105.773,1348.228Zm2.493,8.539c-.747.632-3.2,2.241-4.458,3.056v-2.1a.494.494,0,0,0-.494-.494h-.261a3.891,3.891,0,0,1-4.159-3.874,4.1,4.1,0,0,1,4.147-4.148l2.729.007h0a4.1,4.1,0,0,1,4.148,4.144A4.563,4.563,0,0,1,108.266,1356.767Z" fill="#657786"/>
  </g>
</svg>
