<svg xmlns="http://www.w3.org/2000/svg" width="12.642" height="12.449" viewBox="0 0 12.642 12.449">
  <g id="Group_181" data-name="Group 181" transform="translate(-472.16 -1348.265)">
    <path id="Path_5084" data-name="Path 5084" d="M481.977,1351.564l-3.161-3.16a.474.474,0,0,0-.67,0l-3.16,3.16a.474.474,0,0,0,.67.671l2.351-2.351v6.44a.474.474,0,1,0,.948,0v-6.44l2.352,2.351a.474.474,0,0,0,.67-.671Z" fill="#657786"/>
    <g id="Group_180" data-name="Group 180">
      <path id="Path_5085" data-name="Path 5085" d="M483.354,1360.714h-9.745a1.451,1.451,0,0,1-1.449-1.449v-3.573a.474.474,0,1,1,.948,0v3.573a.5.5,0,0,0,.5.5h9.745a.5.5,0,0,0,.5-.5v-3.573a.474.474,0,1,1,.948,0v3.573A1.45,1.45,0,0,1,483.354,1360.714Z" fill="#657786"/>
    </g>
  </g>
</svg>
