<svg xmlns="http://www.w3.org/2000/svg" width="13.23" height="12.449" viewBox="0 0 13.23 12.449">
  <g id="Group_183" data-name="Group 183" transform="translate(-329.331 -1348.531)">
    <g id="Group_182" data-name="Group 182">
      <path id="Path_5086" data-name="Path 5086" d="M335.946,1360.98h-.009c-1.7-.032-6.606-4.464-6.606-8.661a3.774,3.774,0,0,1,3.556-3.788,3.852,3.852,0,0,1,3.059,1.8,3.848,3.848,0,0,1,3.057-1.8,3.775,3.775,0,0,1,3.558,3.788c0,4.2-4.906,8.629-6.606,8.661Zm-3.059-11.462a2.764,2.764,0,0,0-2.569,2.8c0,3.779,4.629,7.632,5.628,7.673,1-.041,5.627-3.894,5.627-7.673a2.763,2.763,0,0,0-2.57-2.8c-1.664,0-2.593,1.932-2.6,1.951a.514.514,0,0,1-.913,0C335.481,1351.45,334.552,1349.518,332.887,1349.518Z" fill="#657786"/>
    </g>
  </g>
</svg>
