<svg xmlns="http://www.w3.org/2000/svg" width="24" height="24" viewBox="0 0 24 24">
    <g>
        <path d="M34.515 66.2a2.513 2.513 0 0 0-1.768-1.78c-1.56-.42-7.814-.42-7.814-.42s-6.254 0-7.814.421a2.513 2.513 0 0 0-1.768 1.78 28.295 28.295 0 0 0 0 9.69 2.476 2.476 0 0 0 1.768 1.751c1.56.421 7.814.421 7.814.421s6.254 0 7.814-.421a2.476 2.476 0 0 0 1.768-1.751 28.295 28.295 0 0 0 0-9.69zm-11.627 7.819v-5.947l5.227 2.974z" transform="translate(18247 6722) translate(-18259.934 -6781)"/>
    </g>
</svg>
